<svg xmlns="http://www.w3.org/2000/svg" xmlns:xlink="http://www.w3.org/1999/xlink" width="500" zoomAndPan="magnify" viewBox="0 0 375 374.999991" height="500" preserveAspectRatio="xMidYMid meet" version="1.0"><path fill="#fac832" d="M 375.109375 187.617188 C 375.109375 190.6875 375.03125 193.753906 374.882812 196.820312 C 374.730469 199.882812 374.503906 202.941406 374.203125 205.996094 C 373.902344 209.050781 373.527344 212.09375 373.078125 215.128906 C 372.628906 218.164062 372.105469 221.1875 371.503906 224.195312 C 370.90625 227.207031 370.234375 230.199219 369.488281 233.175781 C 368.742188 236.152344 367.925781 239.109375 367.035156 242.042969 C 366.144531 244.980469 365.179688 247.894531 364.148438 250.78125 C 363.113281 253.671875 362.011719 256.53125 360.835938 259.367188 C 359.660156 262.203125 358.417969 265.007812 357.105469 267.78125 C 355.792969 270.554688 354.414062 273.292969 352.96875 276 C 351.523438 278.707031 350.011719 281.375 348.433594 284.007812 C 346.855469 286.640625 345.214844 289.230469 343.511719 291.78125 C 341.804688 294.332031 340.039062 296.839844 338.210938 299.304688 C 336.382812 301.769531 334.496094 304.1875 332.550781 306.5625 C 330.601562 308.933594 328.597656 311.253906 326.539062 313.527344 C 324.476562 315.800781 322.363281 318.023438 320.195312 320.195312 C 318.023438 322.363281 315.800781 324.476562 313.527344 326.539062 C 311.253906 328.597656 308.933594 330.601562 306.5625 332.550781 C 304.1875 334.496094 301.769531 336.382812 299.304688 338.210938 C 296.839844 340.039062 294.332031 341.804688 291.78125 343.511719 C 289.230469 345.214844 286.640625 346.855469 284.007812 348.433594 C 281.375 350.011719 278.707031 351.523438 276 352.96875 C 273.292969 354.414062 270.554688 355.796875 267.78125 357.105469 C 265.007812 358.417969 262.203125 359.660156 259.367188 360.835938 C 256.53125 362.011719 253.671875 363.113281 250.78125 364.148438 C 247.894531 365.179688 244.980469 366.144531 242.042969 367.035156 C 239.109375 367.925781 236.152344 368.742188 233.175781 369.488281 C 230.199219 370.234375 227.207031 370.90625 224.195312 371.503906 C 221.1875 372.105469 218.164062 372.628906 215.128906 373.078125 C 212.09375 373.527344 209.050781 373.902344 205.996094 374.203125 C 202.941406 374.503906 199.882812 374.730469 196.820312 374.882812 C 193.753906 375.03125 190.6875 375.109375 187.617188 375.109375 C 184.550781 375.109375 181.484375 375.03125 178.417969 374.882812 C 175.355469 374.730469 172.296875 374.503906 169.242188 374.203125 C 166.1875 373.902344 163.144531 373.527344 160.109375 373.078125 C 157.074219 372.628906 154.050781 372.105469 151.042969 371.503906 C 148.03125 370.90625 145.039062 370.234375 142.0625 369.488281 C 139.085938 368.742188 136.128906 367.925781 133.195312 367.035156 C 130.257812 366.144531 127.34375 365.179688 124.457031 364.148438 C 121.566406 363.113281 118.707031 362.011719 115.871094 360.835938 C 113.035156 359.660156 110.230469 358.417969 107.457031 357.105469 C 104.683594 355.792969 101.945312 354.414062 99.238281 352.96875 C 96.53125 351.523438 93.863281 350.011719 91.230469 348.433594 C 88.597656 346.855469 86.007812 345.214844 83.457031 343.511719 C 80.90625 341.804688 78.398438 340.039062 75.933594 338.210938 C 73.46875 336.382812 71.050781 334.496094 68.675781 332.550781 C 66.304688 330.601562 63.984375 328.597656 61.710938 326.539062 C 59.4375 324.476562 57.214844 322.363281 55.042969 320.195312 C 52.875 318.023438 50.757812 315.800781 48.699219 313.527344 C 46.636719 311.253906 44.636719 308.933594 42.6875 306.5625 C 40.742188 304.1875 38.855469 301.769531 37.027344 299.304688 C 35.199219 296.839844 33.433594 294.332031 31.726562 291.78125 C 30.023438 289.230469 28.382812 286.640625 26.804688 284.007812 C 25.226562 281.375 23.714844 278.707031 22.269531 276 C 20.824219 273.292969 19.441406 270.554688 18.132812 267.78125 C 16.820312 265.007812 15.578125 262.203125 14.402344 259.367188 C 13.226562 256.53125 12.125 253.671875 11.089844 250.78125 C 10.054688 247.894531 9.09375 244.980469 8.203125 242.042969 C 7.3125 239.109375 6.496094 236.152344 5.75 233.175781 C 5.003906 230.199219 4.332031 227.207031 3.734375 224.195312 C 3.132812 221.1875 2.609375 218.164062 2.160156 215.128906 C 1.710938 212.09375 1.332031 209.050781 1.035156 205.996094 C 0.734375 202.941406 0.507812 199.882812 0.355469 196.820312 C 0.207031 193.753906 0.128906 190.6875 0.128906 187.617188 C 0.128906 184.550781 0.207031 181.484375 0.355469 178.417969 C 0.507812 175.355469 0.734375 172.296875 1.035156 169.242188 C 1.335938 166.1875 1.710938 163.144531 2.160156 160.109375 C 2.609375 157.074219 3.132812 154.050781 3.734375 151.042969 C 4.332031 148.03125 5.003906 145.039062 5.75 142.0625 C 6.496094 139.085938 7.3125 136.128906 8.203125 133.195312 C 9.09375 130.257812 10.054688 127.34375 11.089844 124.457031 C 12.125 121.566406 13.226562 118.707031 14.402344 115.871094 C 15.578125 113.035156 16.820312 110.230469 18.132812 107.457031 C 19.441406 104.683594 20.824219 101.945312 22.269531 99.238281 C 23.714844 96.53125 25.226562 93.863281 26.804688 91.230469 C 28.382812 88.597656 30.023438 86.007812 31.726562 83.457031 C 33.433594 80.90625 35.199219 78.398438 37.027344 75.933594 C 38.855469 73.46875 40.742188 71.050781 42.6875 68.675781 C 44.636719 66.304688 46.636719 63.984375 48.699219 61.710938 C 50.757812 59.4375 52.875 57.214844 55.042969 55.042969 C 57.214844 52.875 59.4375 50.757812 61.710938 48.699219 C 63.984375 46.636719 66.304688 44.636719 68.675781 42.6875 C 71.050781 40.742188 73.46875 38.855469 75.933594 37.027344 C 78.398438 35.199219 80.90625 33.433594 83.457031 31.726562 C 86.007812 30.023438 88.597656 28.382812 91.230469 26.804688 C 93.863281 25.226562 96.53125 23.714844 99.238281 22.269531 C 101.945312 20.824219 104.683594 19.441406 107.457031 18.132812 C 110.230469 16.820312 113.035156 15.578125 115.871094 14.402344 C 118.707031 13.226562 121.566406 12.125 124.457031 11.089844 C 127.34375 10.054688 130.257812 9.09375 133.195312 8.203125 C 136.128906 7.3125 139.085938 6.496094 142.0625 5.75 C 145.039062 5.003906 148.03125 4.332031 151.042969 3.734375 C 154.050781 3.132812 157.074219 2.609375 160.109375 2.160156 C 163.144531 1.710938 166.1875 1.335938 169.242188 1.035156 C 172.296875 0.734375 175.355469 0.507812 178.417969 0.355469 C 181.484375 0.207031 184.550781 0.128906 187.617188 0.128906 C 190.6875 0.128906 193.753906 0.207031 196.820312 0.355469 C 199.882812 0.507812 202.941406 0.734375 205.996094 1.035156 C 209.050781 1.335938 212.09375 1.710938 215.128906 2.160156 C 218.164062 2.609375 221.1875 3.132812 224.195312 3.734375 C 227.207031 4.332031 230.199219 5.003906 233.175781 5.75 C 236.152344 6.496094 239.109375 7.3125 242.042969 8.203125 C 244.980469 9.09375 247.894531 10.054688 250.78125 11.089844 C 253.671875 12.125 256.53125 13.226562 259.367188 14.402344 C 262.203125 15.578125 265.007812 16.820312 267.78125 18.132812 C 270.554688 19.441406 273.292969 20.824219 276 22.269531 C 278.707031 23.714844 281.375 25.226562 284.007812 26.804688 C 286.640625 28.382812 289.230469 30.023438 291.78125 31.726562 C 294.332031 33.433594 296.839844 35.199219 299.304688 37.027344 C 301.769531 38.855469 304.1875 40.742188 306.5625 42.6875 C 308.933594 44.636719 311.253906 46.636719 313.527344 48.699219 C 315.800781 50.757812 318.023438 52.875 320.195312 55.042969 C 322.363281 57.214844 324.476562 59.4375 326.539062 61.710938 C 328.597656 63.984375 330.601562 66.304688 332.550781 68.675781 C 334.496094 71.050781 336.382812 73.46875 338.210938 75.933594 C 340.039062 78.398438 341.804688 80.90625 343.511719 83.457031 C 345.214844 86.007812 346.855469 88.597656 348.433594 91.230469 C 350.011719 93.863281 351.523438 96.53125 352.96875 99.238281 C 354.414062 101.945312 355.796875 104.683594 357.105469 107.457031 C 358.417969 110.230469 359.660156 113.035156 360.835938 115.871094 C 362.011719 118.707031 363.113281 121.566406 364.148438 124.457031 C 365.179688 127.34375 366.144531 130.257812 367.035156 133.195312 C 367.925781 136.128906 368.742188 139.085938 369.488281 142.0625 C 370.234375 145.039062 370.90625 148.03125 371.503906 151.042969 C 372.105469 154.050781 372.628906 157.074219 373.078125 160.109375 C 373.527344 163.144531 373.902344 166.1875 374.203125 169.242188 C 374.503906 172.296875 374.730469 175.355469 374.882812 178.417969 C 375.03125 181.484375 375.109375 184.550781 375.109375 187.617188 Z M 375.109375 187.617188 " fill-opacity="1" fill-rule="nonzero"/><path stroke-linecap="round" transform="matrix(2.834467, 0, 0, 2.834467, -187.358244, -187.358248)" fill="none" stroke-linejoin="miter" d="M 99.163969 118.295103 C 99.336235 117.706643 99.559491 117.1361 99.830981 116.582093 C 100.102472 116.029465 100.419441 115.500265 100.781888 114.994493 C 101.144335 114.490099 101.548125 114.016024 101.99326 113.573646 C 102.437016 113.12989 102.916603 112.724721 103.430644 112.355384 C 103.946063 111.986046 104.489044 111.658052 105.059588 111.372781 C 105.630132 111.087509 106.221347 110.846337 106.834613 110.652021 C 107.446501 110.457705 108.070791 110.310246 108.708863 110.212399 C 109.346935 110.113174 109.987763 110.063562 110.634104 110.063562 C 111.280445 110.063562 111.922651 110.113174 112.559345 110.212399 C 113.197417 110.310246 113.821707 110.457705 114.434973 110.652021 C 115.04686 110.847715 115.638076 111.087509 116.209998 111.372781 C 116.780542 111.659431 117.323523 111.986046 117.837564 112.355384 C 118.351604 112.724721 118.831192 113.131268 119.276326 113.573646 C 119.720082 114.017403 120.123873 114.490099 120.48632 114.995871 C 120.850145 115.500265 121.167114 116.029465 121.438604 116.583471 C 121.710095 117.137478 121.931973 117.708021 122.105617 118.296481 " stroke="#4d4d4d" stroke-width="6.615" stroke-opacity="1" stroke-miterlimit="4"/><path fill="#fcfcfc" d="M 315.859375 210.875 C 232.613281 195.117188 142.621094 195.117188 59.375 210.875 C 59.375 271.894531 119.277344 321.359375 187.617188 321.359375 C 255.960938 321.359375 315.859375 271.894531 315.859375 210.875 Z M 315.859375 210.875 " fill-opacity="1" fill-rule="nonzero"/><path stroke-linecap="round" transform="matrix(2.834467, 0, 0, 2.834467, -187.358244, -187.358248)" fill="none" stroke-linejoin="miter" d="M 142.47844 118.295103 C 142.650706 117.706643 142.873962 117.1361 143.145453 116.582093 C 143.416943 116.029465 143.733912 115.500265 144.096359 114.994493 C 144.458806 114.490099 144.862596 114.016024 145.307731 113.573646 C 145.751487 113.12989 146.231075 112.724721 146.746493 112.355384 C 147.260534 111.986046 147.803515 111.658052 148.374059 111.372781 C 148.944603 111.087509 149.535818 110.846337 150.149084 110.652021 C 150.760972 110.457705 151.385262 110.310246 152.023334 110.212399 C 152.661406 110.113174 153.302234 110.063562 153.948575 110.063562 C 154.594916 110.063562 155.237122 110.113174 155.873816 110.212399 C 156.511888 110.310246 157.137556 110.457705 157.749444 110.652021 C 158.361331 110.847715 158.952547 111.087509 159.524469 111.372781 C 160.095013 111.659431 160.637994 111.986046 161.152035 112.355384 C 161.666075 112.724721 162.145663 113.131268 162.590797 113.573646 C 163.034554 114.017403 163.438344 114.490099 163.800791 114.995871 C 164.164616 115.500265 164.481585 116.029465 164.753076 116.583471 C 165.024566 117.137478 165.246444 117.708021 165.420088 118.296481 " stroke="#4d4d4d" stroke-width="6.615" stroke-opacity="1" stroke-miterlimit="4"/><path fill="#d9d9d9" d="M 117.121094 202.566406 C 116.359375 202.644531 115.59375 202.71875 114.832031 202.796875 C 113.496094 202.9375 112.160156 203.078125 110.824219 203.222656 C 109.492188 203.371094 108.15625 203.519531 106.824219 203.675781 C 105.757812 203.796875 104.691406 203.925781 103.625 204.054688 L 103.625 293.601562 C 103.984375 293.875 104.339844 294.148438 104.703125 294.417969 C 105.484375 294.996094 106.277344 295.566406 107.074219 296.132812 C 107.875 296.695312 108.679688 297.25 109.492188 297.796875 C 110.308594 298.34375 111.128906 298.882812 111.957031 299.410156 C 112.785156 299.941406 113.617188 300.464844 114.460938 300.976562 C 115.304688 301.488281 116.152344 301.996094 117.007812 302.492188 C 117.046875 302.515625 117.085938 302.535156 117.121094 302.558594 Z M 117.121094 202.566406 " fill-opacity="1" fill-rule="nonzero"/><path fill="#d9d9d9" d="M 271.613281 204.0625 C 270.546875 203.933594 269.480469 203.796875 268.414062 203.675781 C 265.746094 203.367188 263.078125 203.074219 260.402344 202.796875 C 259.640625 202.71875 258.875 202.648438 258.113281 202.574219 L 258.113281 302.558594 C 258.152344 302.535156 258.191406 302.515625 258.226562 302.492188 C 259.082031 301.996094 259.933594 301.488281 260.773438 300.976562 C 261.617188 300.464844 262.453125 299.941406 263.28125 299.414062 C 264.109375 298.882812 264.929688 298.34375 265.742188 297.796875 C 266.554688 297.25 267.363281 296.695312 268.160156 296.132812 C 268.957031 295.566406 269.75 294.996094 270.535156 294.417969 C 270.898438 294.148438 271.253906 293.875 271.613281 293.601562 Z M 271.613281 204.0625 " fill-opacity="1" fill-rule="nonzero"/><path fill="#d9d9d9" d="M 194.367188 199.097656 C 192.117188 199.074219 189.867188 199.058594 187.617188 199.058594 C 185.367188 199.058594 183.117188 199.074219 180.867188 199.097656 L 180.867188 321.199219 C 180.992188 321.203125 181.113281 321.210938 181.238281 321.21875 C 182.296875 321.265625 183.355469 321.300781 184.421875 321.324219 C 185.484375 321.347656 186.550781 321.359375 187.617188 321.359375 C 188.6875 321.359375 189.753906 321.347656 190.816406 321.324219 C 191.878906 321.300781 192.941406 321.265625 194 321.21875 C 194.121094 321.210938 194.246094 321.203125 194.367188 321.199219 Z M 194.367188 199.097656 " fill-opacity="1" fill-rule="nonzero"/></svg>